<?xml version="1.0" encoding="UTF-8"?>
<svg width="2033px" height="294px" viewBox="0 0 2033 294" version="1.1" xmlns="http://www.w3.org/2000/svg" xmlns:xlink="http://www.w3.org/1999/xlink">
    <!-- Generator: Sketch 51.2 (57519) - http://www.bohemiancoding.com/sketch -->
    <title>Arch logo blue 800 OUT</title>
    <desc>Created with Sketch.</desc>
    <defs></defs>
    <g id="Page-1" stroke="none" stroke-width="1" fill="none" fill-rule="evenodd">
        <g id="Docsumo-logo" transform="translate(-82.000000, -82.000000)" fill="#4D61FC">
            <g id="Logo" transform="translate(41.000000, -1.000000)">
                <g id="Arch-logo-blue-800-OUT" transform="translate(71.000000, 113.000000)">
                    <g id="Group-14" transform="translate(344.000000, 7.000000)">
                        <path d="M1034.26,214.48 C1005.25985,214.48 982.688414,206.456747 966.545,190.41 C950.401586,174.363253 942.33,151.453482 942.33,121.68 L942.33,8 L989.31,8 L989.31,119.94 C989.31,156.286848 1004.38985,174.46 1034.55,174.46 C1049.24341,174.46 1060.45663,170.061711 1068.19,161.265 C1075.92337,152.468289 1079.79,138.693427 1079.79,119.94 L1079.79,8 L1126.19,8 L1126.19,121.68 C1126.19,151.453482 1118.11841,174.363253 1101.975,190.41 C1085.83159,206.456747 1063.26014,214.48 1034.26,214.48 Z" id="U"></path>
                        <polygon id="M" points="1352.8 211 1352.51 89.2 1292.77 189.54 1271.6 189.54 1212.15 91.81 1212.15 211 1168.07 211 1168.07 8 1206.93 8 1282.91 134.15 1357.73 8 1396.3 8 1396.88 211"></polygon>
                        <path d="M750.531117,161.52103 C758.268617,166.377421 767.091523,170.403717 777,173.6 C789.400062,177.60002 801.799938,179.6 814.2,179.6 C828.000069,179.6 838.199967,177.550021 844.8,173.45 C851.400033,169.34998 854.7,163.900034 854.7,157.1 C854.7,152.099975 852.750019,147.950017 848.85,144.65 C844.94998,141.349984 839.95003,138.70001 833.85,136.7 C827.749969,134.69999 819.500052,132.500012 809.1,130.1 C793.09992,126.299981 780.000051,122.500019 769.8,118.7 C759.599949,114.899981 750.850036,108.800042 743.55,100.4 C736.249963,91.999958 732.6,80.80007 732.6,66.8 C732.6,54.599939 735.899967,43.5500495 742.5,33.65 C749.100033,23.7499505 759.049933,15.900029 772.35,10.1 C785.650066,4.299971 801.899904,1.4 821.1,1.4 C834.500067,1.4 847.599936,2.999984 860.4,6.2 C873.180292,9.39507297 884.365347,13.9857623 893.955501,19.9722055 L905.914411,0.845340069 L920.207934,60.5790099 L860.374429,73.6811679 L872.912104,53.6286367 C855.541357,44.8095061 838.170795,40.4 820.8,40.4 C807.199932,40.4 797.150032,42.599978 790.65,47 C784.149967,51.400022 780.9,57.199964 780.9,64.4 C780.9,71.600036 784.649962,76.9499825 792.15,80.45 C799.650037,83.9500175 811.099923,87.399983 826.5,90.8 C842.50008,94.600019 855.599949,98.399981 865.8,102.2 C876.000051,106.000019 884.749963,111.999959 892.05,120.2 C899.350036,128.400041 903,139.49993 903,153.5 C903,165.50006 899.650033,176.449951 892.95,186.35 C886.249966,196.25005 876.200067,204.099971 862.8,209.9 C849.399933,215.700029 833.100096,218.6 813.9,218.6 C797.299917,218.6 781.250077,216.350023 765.75,211.85 C750.854341,207.525454 738.775639,201.954215 729.513564,195.136127 L716.667951,215.681168 L702.374429,155.947498 L762.207934,142.84534 L750.531117,161.52103 Z" id="Combined-Shape"></path>
                        <path d="M597.886667,214.48 C577.199897,214.48 558.495084,209.985045 541.771667,200.995 C525.04825,192.004955 511.901715,179.53508 502.331667,163.585 C492.761619,147.63492 487.976667,129.606767 487.976667,109.5 C487.976667,89.3932328 492.761619,71.3650798 502.331667,55.415 C511.901715,39.4649203 525.04825,26.9950449 541.771667,18.005 C558.495084,9.01495505 577.296562,4.52 598.176667,4.52 C615.770088,4.52 631.671596,7.6133024 645.881667,13.8 C660.091738,19.9866976 672.029952,28.879942 681.696667,40.48 L651.536667,68.32 C637.809931,52.4665874 620.796768,44.54 600.496667,44.54 C587.929937,44.54 576.716716,47.2949725 566.856667,52.805 C556.996617,58.3150276 549.311694,65.9999507 543.801667,75.86 C538.291639,85.7200493 535.536667,96.9332705 535.536667,109.5 C535.536667,122.066729 538.291639,133.279951 543.801667,143.14 C549.311694,153.000049 556.996617,160.684972 566.856667,166.195 C576.716716,171.705028 587.929937,174.46 600.496667,174.46 C620.796768,174.46 637.809931,166.436747 651.536667,150.39 L681.696667,178.23 C672.029952,190.023392 660.043405,199.013302 645.736667,205.2 C631.429928,211.386698 615.480088,214.48 597.886667,214.48 Z" id="C"></path>
                        <path d="M350.933333,218.6 C329.133224,218.6 309.483421,213.900047 291.983333,204.5 C274.483246,195.099953 260.783383,182.150083 250.883333,165.65 C240.983284,149.149918 236.033333,130.600103 236.033333,110 C236.033333,89.399897 240.983284,70.8500825 250.883333,54.35 C260.783383,37.8499175 274.483246,24.900047 291.983333,15.5 C309.483421,6.099953 329.133224,1.4 350.933333,1.4 C372.733442,1.4 392.333246,6.099953 409.733333,15.5 C427.13342,24.900047 440.833283,37.8499175 450.833333,54.35 C460.833383,70.8500825 465.833333,89.399897 465.833333,110 C465.833333,130.600103 460.833383,149.149918 450.833333,165.65 C440.833283,182.150083 427.13342,195.099953 409.733333,204.5 C392.333246,213.900047 372.733442,218.6 350.933333,218.6 Z M350.933333,177.2 C363.333395,177.2 374.533283,174.350029 384.533333,168.65 C394.533383,162.949972 402.383305,155.000051 408.083333,144.8 C413.783362,134.599949 416.633333,123.000065 416.633333,110 C416.633333,96.999935 413.783362,85.400051 408.083333,75.2 C402.383305,64.999949 394.533383,57.0500285 384.533333,51.35 C374.533283,45.6499715 363.333395,42.8 350.933333,42.8 C338.533271,42.8 327.333383,45.6499715 317.333333,51.35 C307.333283,57.0500285 299.483362,64.999949 293.783333,75.2 C288.083305,85.400051 285.233333,96.999935 285.233333,110 C285.233333,123.000065 288.083305,134.599949 293.783333,144.8 C299.483362,155.000051 307.333283,162.949972 317.333333,168.65 C327.333383,174.350029 338.533271,177.2 350.933333,177.2 Z" id="O"></path>
                        <path d="M1543.93333,218.6 C1522.13322,218.6 1502.48342,213.900047 1484.98333,204.5 C1467.48325,195.099953 1453.78338,182.150083 1443.88333,165.65 C1433.98328,149.149918 1429.03333,130.600103 1429.03333,110 C1429.03333,89.399897 1433.98328,70.8500825 1443.88333,54.35 C1453.78338,37.8499175 1467.48325,24.900047 1484.98333,15.5 C1502.48342,6.099953 1522.13322,1.4 1543.93333,1.4 C1565.73344,1.4 1585.33325,6.099953 1602.73333,15.5 C1620.13342,24.900047 1633.83328,37.8499175 1643.83333,54.35 C1653.83338,70.8500825 1658.83333,89.399897 1658.83333,110 C1658.83333,130.600103 1653.83338,149.149918 1643.83333,165.65 C1633.83328,182.150083 1620.13342,195.099953 1602.73333,204.5 C1585.33325,213.900047 1565.73344,218.6 1543.93333,218.6 Z M1543.93333,177.2 C1556.3334,177.2 1567.53328,174.350029 1577.53333,168.65 C1587.53338,162.949972 1595.3833,155.000051 1601.08333,144.8 C1606.78336,134.599949 1609.63333,123.000065 1609.63333,110 C1609.63333,96.999935 1606.78336,85.400051 1601.08333,75.2 C1595.3833,64.999949 1587.53338,57.0500285 1577.53333,51.35 C1567.53328,45.6499715 1556.3334,42.8 1543.93333,42.8 C1531.53327,42.8 1520.33338,45.6499715 1510.33333,51.35 C1500.33328,57.0500285 1492.48336,64.999949 1486.78333,75.2 C1481.0833,85.400051 1478.23333,96.999935 1478.23333,110 C1478.23333,123.000065 1481.0833,134.599949 1486.78333,144.8 C1492.48336,155.000051 1500.33328,162.949972 1510.33333,168.65 C1520.33338,174.350029 1531.53327,177.2 1543.93333,177.2 Z" id="O-Copy"></path>
                        <path d="M0.9,5 L96.3,5 C119.100114,5 139.249912,9.3499565 156.75,18.05 C174.250087,26.7500435 187.849951,38.999921 197.55,54.8 C207.250048,70.600079 212.1,88.999895 212.1,110 C212.1,131.000105 207.250048,149.399921 197.55,165.2 C187.849951,181.000079 174.250087,193.249956 156.75,201.95 C139.249912,210.650043 119.100114,215 96.3,215 L0.9,215 L0.9,5 Z M93.9,175.1 C114.900105,175.1 131.649937,169.250059 144.15,157.55 C156.650062,145.849941 162.9,130.0001 162.9,110 C162.9,89.9999 156.650062,74.1500585 144.15,62.45 C131.649937,50.7499415 114.900105,44.9 93.9,44.9 L49.5,44.9 L49.5,175.1 L93.9,175.1 Z" id="D"></path>
                    </g>
                    <g id="Arch-Mark-Copy-3">
                        <path d="M32.8737569,195.04553 C29.144011,201.180439 21.1471278,203.130209 15.0122185,199.400463 C8.87730922,195.670717 6.92753913,187.673834 10.6572851,181.538925 L98.0841674,37.7339594 C101.813913,31.5990501 109.810796,29.64928 115.945706,33.379026 C122.080615,37.108772 124.030385,45.1056551 120.300639,51.2405644 L32.8737569,195.04553 Z M115.672167,51.1958341 C111.942421,45.0609248 113.892191,37.0640417 120.0271,33.3342957 C126.16201,29.6045497 134.158893,31.5543198 137.888639,37.6892291 L227.169197,184.543232 C230.898943,190.678141 228.949173,198.675025 222.814264,202.404771 C216.679355,206.134517 208.682471,204.184746 204.952725,198.049837 L115.672167,51.1958341 Z" id="Triangle-2" fill-rule="nonzero"></path>
                        <path d="M12.5,234 C19.4035594,234 25,228.403559 25,221.5 C25,214.596441 19.4035594,209 12.5,209 C5.59644063,209 0,214.596441 0,221.5 C0,228.403559 5.59644063,234 12.5,234 Z M12.5,264 C-10.9721019,264 -30,244.972102 -30,221.5 C-30,198.027898 -10.9721019,179 12.5,179 C35.9721019,179 55,198.027898 55,221.5 C55,244.972102 35.9721019,264 12.5,264 Z" id="Oval-2-Copy" fill-rule="nonzero"></path>
                        <path d="M117.5,25 C124.403559,25 130,19.4035594 130,12.5 C130,5.59644063 124.403559,0 117.5,0 C110.596441,0 105,5.59644063 105,12.5 C105,19.4035594 110.596441,25 117.5,25 Z M117.5,55 C94.0278981,55 75,35.9721019 75,12.5 C75,-10.9721019 94.0278981,-30 117.5,-30 C140.972102,-30 160,-10.9721019 160,12.5 C160,35.9721019 140.972102,55 117.5,55 Z" id="Oval-2-Copy-9" fill-rule="nonzero"></path>
                        <path d="M221.5,234 C228.403559,234 234,228.403559 234,221.5 C234,214.596441 228.403559,209 221.5,209 C214.596441,209 209,214.596441 209,221.5 C209,228.403559 214.596441,234 221.5,234 Z M221.5,264 C198.027898,264 179,244.972102 179,221.5 C179,198.027898 198.027898,179 221.5,179 C244.972102,179 264,198.027898 264,221.5 C264,244.972102 244.972102,264 221.5,264 Z" id="Oval-2-Copy-10" fill-rule="nonzero"></path>
                        <path d="M36.0646686,186.891581 C58.8726233,152.270078 85.5129698,134.959326 115.985708,134.959326 C146.458446,134.959326 174.286553,151.936744 199.470028,185.891581 L218.006507,181.579582 C201.273334,138.526527 167.266401,117 115.985708,117 C64.7050151,117 30.7568776,138.526527 14.1412956,181.579582 L36.0646686,186.891581 Z" id="Path-3-Copy-3"></path>
                    </g>
                </g>
            </g>
        </g>
    </g>
</svg>