<?xml version="1.0" encoding="UTF-8"?>
<svg width="638px" height="120px" viewBox="0 0 638 120" version="1.1" xmlns="http://www.w3.org/2000/svg" xmlns:xlink="http://www.w3.org/1999/xlink">
    <!-- Generator: Sketch 61.2 (89653) - https://sketch.com -->
    <title>Logo - Red &amp; White</title>
    <desc>Created with Sketch.</desc>
    <g id="Logo" stroke="none" stroke-width="1" fill="none" fill-rule="evenodd">
        <g id="Logo---Red-&amp;-White" transform="translate(-120.000000, -120.000000)">
            <g transform="translate(120.000000, 120.000000)">
                <path d="M476.762153,0.000902155286 L476.762153,101.877059 L458.058923,101.877059 L458.058923,96.3592302 C452.107252,101.169515 444.314408,104.0007 434.67938,104.0007 C416.684683,104.0007 399.964332,88.8602798 399.964332,66.6454354 C399.964332,44.430591 416.684683,29.1496729 434.67938,29.1496729 C444.314408,29.1496729 452.107252,31.9798469 458.058923,36.9316406 L458.058923,0.000902155286 L476.762153,0.000902155286 Z M521.815902,29.1495718 C540.660838,29.1495718 556.95607,43.7229464 557.664602,65.2312581 L557.664602,71.5991496 L503.821205,71.5991496 C505.663389,81.7857545 512.889407,88.0111265 521.532489,88.0111265 C527.059042,88.0111265 534.001646,87.3045938 539.102067,78.6735739 L555.822418,82.2102806 C549.588346,96.9251639 536.977482,104.000599 521.532489,104.000599 C501.553902,104.000599 485.259682,88.8601788 485.259682,66.6453343 C485.259682,44.4315007 501.553902,29.1495718 521.815902,29.1495718 Z M601.652112,29.1495718 C620.496036,29.1495718 636.791267,43.7229464 637.4998,65.2312581 L637.4998,71.5991496 L583.656403,71.5991496 C585.498587,81.7857545 592.724604,88.0111265 601.367687,88.0111265 C606.894239,88.0111265 613.836844,87.3045938 618.938277,78.6735739 L635.657615,82.2102806 C629.423543,96.9251639 616.81268,104.000599 601.367687,104.000599 C581.389099,104.000599 565.09488,88.8601788 565.09488,66.6453343 C565.09488,44.4315007 581.389099,29.1495718 601.652112,29.1495718 Z M249.218004,29.1503804 C263.953452,29.1503804 276.706022,40.4690549 276.706022,57.7321056 L276.706022,101.877766 L258.144499,101.877766 L258.144499,61.5518297 C258.144499,52.0717576 252.052133,46.2709116 244.258277,46.2709116 C234.339837,46.2709116 227.822352,53.0623185 227.822352,67.9187105 L227.822352,101.877766 L209.119122,101.877766 L209.119122,61.5518297 C209.119122,52.0717576 203.025744,46.2709116 195.2329,46.2709116 C185.31446,46.2709116 179.080387,53.0623185 179.080387,67.9187105 L179.080387,101.877766 L160.377158,101.877766 L160.377158,31.2720002 L179.080387,31.2720002 L179.080387,37.0738569 C184.039102,32.1200416 190.981706,29.1503804 200.191615,29.1503804 C209.685948,29.1503804 218.32903,33.253122 223.429451,40.7520723 C229.239416,33.5361394 237.882499,29.1503804 249.218004,29.1503804 Z M308.862661,31.2721012 L308.862661,101.877867 L290.159432,101.877867 L290.159432,31.2721012 L308.862661,31.2721012 Z M364.970932,29.1504815 C381.973684,29.1504815 393.309189,41.3182082 393.309189,58.8632655 L393.309189,101.877867 L374.60596,101.877867 L374.60596,62.8255091 C374.60596,52.9209109 368.937701,46.2710127 360.295631,46.2710127 C349.668658,46.2710127 342.725041,53.345437 342.725041,70.6074769 L342.725041,101.877867 L324.021812,101.877867 L324.021812,31.2721012 L342.725041,31.2721012 L342.725041,37.638982 C348.251593,32.1201427 355.619318,29.1504815 364.970932,29.1504815 Z M437.938629,45.4211519 C426.603124,45.4211519 418.101748,53.6276457 418.101748,66.6454354 C418.101748,79.6632251 426.603124,87.7282102 437.938629,87.7282102 C447.998776,87.7282102 458.058923,79.6632251 458.058923,66.6454354 C458.058923,53.6276457 447.998776,45.4211519 437.938629,45.4211519 Z M521.815902,45.4210508 C514.731591,45.4210508 506.655335,49.6663118 504.388031,58.4388405 L538.536253,58.4388405 C536.127243,49.3832944 529.325333,45.4210508 521.815902,45.4210508 Z M601.652112,45.4210508 C594.566788,45.4210508 586.490532,49.6663118 584.223228,58.4388405 L618.371451,58.4388405 C615.962441,49.3832944 609.161542,45.4210508 601.652112,45.4210508 Z M308.862661,0.0007 L308.862661,18.6788377 L290.159432,18.6788377 L290.159432,0.0007 L308.862661,0.0007 Z" id="Font" fill="#FFFFFF"></path>
                <path d="M120.282718,0.0003 L120.282718,120.0003 L68.7334257,120.0003 L68.7334257,102.8573 L103.099287,102.8573 L103.099287,17.1433 L68.7334257,17.1433 L68.7334257,0.0003 L120.282718,0.0003 Z M51.5502948,-7.99360578e-14 L51.5502948,17.143 L17.1834316,17.143 L17.1834316,102.858 L51.5502948,102.858 L51.5502948,120 L1.33226763e-13,120 L1.33226763e-13,-7.99360578e-14 L51.5502948,-7.99360578e-14 Z M51.5500943,68.5707 L51.5500943,85.7147 L34.3666627,85.7147 L34.3666627,68.5707 L51.5500943,68.5707 Z M85.9159552,34.2867 L85.9159552,51.4297 L34.3656604,51.4297 L34.3656604,34.2867 L85.9159552,34.2867 Z" id="Icon" fill="#FD3246"></path>
            </g>
        </g>
    </g>
</svg>